<mxfile modified="2022-05-20T02:25:31.436Z" host="app.diagrams.net" agent="5.0 (Windows NT 10.0; Win64; x64) AppleWebKit/537.36 (KHTML, like Gecko) Chrome/101.0.4951.54 Safari/537.36" etag="z-sIRUoz39hzhje_JdXc" compressed="false" version="18.0.8" type="google">
  <diagram name="Integration/System Logical Module/API/Resource URLs/Groups" id="b9c_2zbqip0hd2yTchfW">
    <mxGraphModel grid="1" page="1" gridSize="10" guides="1" tooltips="1" connect="1" arrows="1" fold="1" pageScale="1" pageWidth="850" pageHeight="1100" math="0" shadow="0">
      <root>
        <mxCell id="oDPe8HKDk9eNYHxUE_Uw-0" />
        <mxCell id="oDPe8HKDk9eNYHxUE_Uw-1" value="Diagram" parent="oDPe8HKDk9eNYHxUE_Uw-0" />
        <mxCell id="oDPe8HKDk9eNYHxUE_Uw-36" value="Organisations/{uuid}/Groups" style="text;html=1;strokeColor=none;fillColor=none;align=left;verticalAlign=middle;whiteSpace=wrap;rounded=0;dashed=1;fontSize=12;fontFamily=Courier New;" vertex="1" parent="oDPe8HKDk9eNYHxUE_Uw-1">
          <mxGeometry x="160" y="340" width="200" height="20" as="geometry" />
        </mxCell>
        <mxCell id="oDPe8HKDk9eNYHxUE_Uw-37" value="List Groups of&amp;nbsp; Organisation {uuid}&amp;nbsp;" style="text;html=1;strokeColor=none;fillColor=none;align=left;verticalAlign=middle;whiteSpace=wrap;rounded=0;dashed=1;fontFamily=Helvetica;fontSize=12;" vertex="1" parent="oDPe8HKDk9eNYHxUE_Uw-1">
          <mxGeometry x="400" y="340" width="320" height="20" as="geometry" />
        </mxCell>
        <mxCell id="oDPe8HKDk9eNYHxUE_Uw-38" value="List Groups" style="text;html=1;strokeColor=none;fillColor=none;align=left;verticalAlign=middle;whiteSpace=wrap;rounded=0;dashed=1;fontFamily=Helvetica;fontSize=12;" vertex="1" parent="oDPe8HKDk9eNYHxUE_Uw-1">
          <mxGeometry x="400" y="280" width="320" height="20" as="geometry" />
        </mxCell>
        <mxCell id="oDPe8HKDk9eNYHxUE_Uw-39" value="Groups" style="text;html=1;strokeColor=none;fillColor=none;align=left;verticalAlign=middle;whiteSpace=wrap;rounded=0;dashed=1;fontSize=12;fontFamily=Courier New;" vertex="1" parent="oDPe8HKDk9eNYHxUE_Uw-1">
          <mxGeometry x="160" y="280" width="200" height="20" as="geometry" />
        </mxCell>
        <mxCell id="oDPe8HKDk9eNYHxUE_Uw-40" value="Groups(&#39;{uuid}&#39;)" style="text;html=1;strokeColor=none;fillColor=none;align=left;verticalAlign=middle;whiteSpace=wrap;rounded=0;dashed=1;fontSize=12;fontFamily=Courier New;" vertex="1" parent="oDPe8HKDk9eNYHxUE_Uw-1">
          <mxGeometry x="160" y="420" width="200" height="20" as="geometry" />
        </mxCell>
        <mxCell id="oDPe8HKDk9eNYHxUE_Uw-41" value="View Group {uuid}" style="text;html=1;strokeColor=none;fillColor=none;align=left;verticalAlign=middle;whiteSpace=wrap;rounded=0;dashed=1;fontFamily=Helvetica;fontSize=12;" vertex="1" parent="oDPe8HKDk9eNYHxUE_Uw-1">
          <mxGeometry x="400" y="420" width="320" height="20" as="geometry" />
        </mxCell>
        <mxCell id="oDPe8HKDk9eNYHxUE_Uw-42" value="Tenants/{uuid}/Groups" style="text;html=1;strokeColor=none;fillColor=none;align=left;verticalAlign=middle;whiteSpace=wrap;rounded=0;dashed=1;fontSize=12;fontFamily=Courier New;" vertex="1" parent="oDPe8HKDk9eNYHxUE_Uw-1">
          <mxGeometry x="160" y="360" width="200" height="20" as="geometry" />
        </mxCell>
        <mxCell id="oDPe8HKDk9eNYHxUE_Uw-43" value="List Groups of&amp;nbsp; Organisation {uuid}&amp;nbsp;" style="text;html=1;strokeColor=none;fillColor=none;align=left;verticalAlign=middle;whiteSpace=wrap;rounded=0;dashed=1;fontFamily=Helvetica;fontSize=12;" vertex="1" parent="oDPe8HKDk9eNYHxUE_Uw-1">
          <mxGeometry x="400" y="360" width="320" height="20" as="geometry" />
        </mxCell>
        <mxCell id="oDPe8HKDk9eNYHxUE_Uw-44" value="GET" style="text;html=1;strokeColor=none;fillColor=none;align=left;verticalAlign=middle;whiteSpace=wrap;rounded=0;dashed=1;fontSize=12;fontFamily=Courier New;" vertex="1" parent="oDPe8HKDk9eNYHxUE_Uw-1">
          <mxGeometry x="120" y="280" width="40" height="20" as="geometry" />
        </mxCell>
        <mxCell id="oDPe8HKDk9eNYHxUE_Uw-45" value="GET" style="text;html=1;strokeColor=none;fillColor=none;align=left;verticalAlign=middle;whiteSpace=wrap;rounded=0;dashed=1;fontSize=12;fontFamily=Courier New;" vertex="1" parent="oDPe8HKDk9eNYHxUE_Uw-1">
          <mxGeometry x="120" y="340" width="40" height="20" as="geometry" />
        </mxCell>
        <mxCell id="oDPe8HKDk9eNYHxUE_Uw-46" value="GET" style="text;html=1;strokeColor=none;fillColor=none;align=left;verticalAlign=middle;whiteSpace=wrap;rounded=0;dashed=1;fontSize=12;fontFamily=Courier New;" vertex="1" parent="oDPe8HKDk9eNYHxUE_Uw-1">
          <mxGeometry x="120" y="360" width="40" height="20" as="geometry" />
        </mxCell>
        <mxCell id="oDPe8HKDk9eNYHxUE_Uw-47" value="GET" style="text;html=1;strokeColor=none;fillColor=none;align=left;verticalAlign=middle;whiteSpace=wrap;rounded=0;dashed=1;fontSize=12;fontFamily=Courier New;" vertex="1" parent="oDPe8HKDk9eNYHxUE_Uw-1">
          <mxGeometry x="120" y="420" width="40" height="20" as="geometry" />
        </mxCell>
        <mxCell id="oDPe8HKDk9eNYHxUE_Uw-48" value="POST" style="text;html=1;strokeColor=none;fillColor=none;align=left;verticalAlign=middle;whiteSpace=wrap;rounded=0;dashed=1;fontSize=12;fontFamily=Courier New;" vertex="1" parent="oDPe8HKDk9eNYHxUE_Uw-1">
          <mxGeometry x="120" y="460" width="40" height="20" as="geometry" />
        </mxCell>
        <mxCell id="oDPe8HKDk9eNYHxUE_Uw-49" value="Groups" style="text;html=1;strokeColor=none;fillColor=none;align=left;verticalAlign=middle;whiteSpace=wrap;rounded=0;dashed=1;fontSize=12;fontFamily=Courier New;" vertex="1" parent="oDPe8HKDk9eNYHxUE_Uw-1">
          <mxGeometry x="160" y="460" width="200" height="20" as="geometry" />
        </mxCell>
        <mxCell id="oDPe8HKDk9eNYHxUE_Uw-50" value="POST" style="text;html=1;strokeColor=none;fillColor=none;align=left;verticalAlign=middle;whiteSpace=wrap;rounded=0;dashed=1;fontSize=12;fontFamily=Courier New;" vertex="1" parent="oDPe8HKDk9eNYHxUE_Uw-1">
          <mxGeometry x="120" y="480" width="40" height="20" as="geometry" />
        </mxCell>
        <mxCell id="oDPe8HKDk9eNYHxUE_Uw-51" value="Groups(&#39;{uuid}&#39;)" style="text;html=1;strokeColor=none;fillColor=none;align=left;verticalAlign=middle;whiteSpace=wrap;rounded=0;dashed=1;fontSize=12;fontFamily=Courier New;" vertex="1" parent="oDPe8HKDk9eNYHxUE_Uw-1">
          <mxGeometry x="160" y="480" width="200" height="20" as="geometry" />
        </mxCell>
        <mxCell id="oDPe8HKDk9eNYHxUE_Uw-52" value="&lt;font style=&quot;font-size: 11px&quot;&gt;Create Group, server side generated Id. &lt;b&gt;&lt;font color=&quot;#cc0000&quot; style=&quot;font-size: 11px&quot;&gt;&lt;u&gt;NOT&lt;/u&gt;&lt;/font&gt; &lt;/b&gt;recommended.&lt;/font&gt;" style="text;html=1;strokeColor=none;fillColor=none;align=left;verticalAlign=middle;whiteSpace=wrap;rounded=0;dashed=1;fontFamily=Helvetica;fontSize=12;" vertex="1" parent="oDPe8HKDk9eNYHxUE_Uw-1">
          <mxGeometry x="400" y="460" width="320" height="20" as="geometry" />
        </mxCell>
        <mxCell id="oDPe8HKDk9eNYHxUE_Uw-53" value="&lt;font style=&quot;font-size: 11px&quot;&gt;Create Group, client side generated UUID. &lt;b&gt;&lt;font color=&quot;#009900&quot; style=&quot;font-size: 11px&quot;&gt;RECOMMNEDED&lt;/font&gt;&lt;/b&gt;.&lt;/font&gt;" style="text;html=1;strokeColor=none;fillColor=none;align=left;verticalAlign=middle;whiteSpace=wrap;rounded=0;dashed=1;fontFamily=Helvetica;fontSize=12;" vertex="1" parent="oDPe8HKDk9eNYHxUE_Uw-1">
          <mxGeometry x="400" y="480" width="320" height="20" as="geometry" />
        </mxCell>
        <mxCell id="oDPe8HKDk9eNYHxUE_Uw-54" value="PUT" style="text;html=1;strokeColor=none;fillColor=none;align=left;verticalAlign=middle;whiteSpace=wrap;rounded=0;dashed=1;fontSize=12;fontFamily=Courier New;" vertex="1" parent="oDPe8HKDk9eNYHxUE_Uw-1">
          <mxGeometry x="120" y="440" width="40" height="20" as="geometry" />
        </mxCell>
        <mxCell id="oDPe8HKDk9eNYHxUE_Uw-55" value="Groups(&#39;{uuid}&#39;)" style="text;html=1;strokeColor=none;fillColor=none;align=left;verticalAlign=middle;whiteSpace=wrap;rounded=0;dashed=1;fontSize=12;fontFamily=Courier New;" vertex="1" parent="oDPe8HKDk9eNYHxUE_Uw-1">
          <mxGeometry x="160" y="440" width="200" height="20" as="geometry" />
        </mxCell>
        <mxCell id="oDPe8HKDk9eNYHxUE_Uw-56" value="Create Group, client side generated UUID." style="text;html=1;strokeColor=none;fillColor=none;align=left;verticalAlign=middle;whiteSpace=wrap;rounded=0;dashed=1;fontFamily=Helvetica;fontSize=12;" vertex="1" parent="oDPe8HKDk9eNYHxUE_Uw-1">
          <mxGeometry x="400" y="440" width="320" height="20" as="geometry" />
        </mxCell>
        <mxCell id="oDPe8HKDk9eNYHxUE_Uw-57" value="DELETE" style="text;html=1;strokeColor=none;fillColor=none;align=left;verticalAlign=middle;whiteSpace=wrap;rounded=0;dashed=1;fontSize=10;fontFamily=Courier New;" vertex="1" parent="oDPe8HKDk9eNYHxUE_Uw-1">
          <mxGeometry x="120" y="500" width="40" height="20" as="geometry" />
        </mxCell>
        <mxCell id="oDPe8HKDk9eNYHxUE_Uw-58" value="Groups(&#39;{uuid}&#39;)" style="text;html=1;strokeColor=none;fillColor=none;align=left;verticalAlign=middle;whiteSpace=wrap;rounded=0;dashed=1;fontSize=12;fontFamily=Courier New;" vertex="1" parent="oDPe8HKDk9eNYHxUE_Uw-1">
          <mxGeometry x="160" y="500" width="200" height="20" as="geometry" />
        </mxCell>
        <mxCell id="oDPe8HKDk9eNYHxUE_Uw-59" value="Delete Group {uuid}" style="text;html=1;strokeColor=none;fillColor=none;align=left;verticalAlign=middle;whiteSpace=wrap;rounded=0;dashed=1;fontFamily=Helvetica;fontSize=12;" vertex="1" parent="oDPe8HKDk9eNYHxUE_Uw-1">
          <mxGeometry x="400" y="500" width="320" height="20" as="geometry" />
        </mxCell>
        <mxCell id="oDPe8HKDk9eNYHxUE_Uw-61" value="List Groups, page 3, using ODATA standard filter arguments." style="text;html=1;strokeColor=none;fillColor=none;align=left;verticalAlign=middle;whiteSpace=wrap;rounded=0;dashed=1;fontFamily=Helvetica;fontSize=11;" vertex="1" parent="oDPe8HKDk9eNYHxUE_Uw-1">
          <mxGeometry x="400" y="320" width="320" height="20" as="geometry" />
        </mxCell>
        <mxCell id="oDPe8HKDk9eNYHxUE_Uw-62" value="Groups?$top=80&amp;amp;$skip=60" style="text;html=1;strokeColor=none;fillColor=none;align=left;verticalAlign=middle;whiteSpace=wrap;rounded=0;dashed=1;fontSize=12;fontFamily=Courier New;" vertex="1" parent="oDPe8HKDk9eNYHxUE_Uw-1">
          <mxGeometry x="160" y="320" width="200" height="20" as="geometry" />
        </mxCell>
        <mxCell id="oDPe8HKDk9eNYHxUE_Uw-63" value="GET" style="text;html=1;strokeColor=none;fillColor=none;align=left;verticalAlign=middle;whiteSpace=wrap;rounded=0;dashed=1;fontSize=12;fontFamily=Courier New;" vertex="1" parent="oDPe8HKDk9eNYHxUE_Uw-1">
          <mxGeometry x="120" y="320" width="40" height="20" as="geometry" />
        </mxCell>
        <mxCell id="oDPe8HKDk9eNYHxUE_Uw-64" value="Count Groups, using ODATA standard filter arguments." style="text;html=1;strokeColor=none;fillColor=none;align=left;verticalAlign=middle;whiteSpace=wrap;rounded=0;dashed=1;fontFamily=Helvetica;fontSize=12;" vertex="1" parent="oDPe8HKDk9eNYHxUE_Uw-1">
          <mxGeometry x="400" y="300" width="320" height="20" as="geometry" />
        </mxCell>
        <mxCell id="oDPe8HKDk9eNYHxUE_Uw-65" value="Groups?$count=true" style="text;html=1;strokeColor=none;fillColor=none;align=left;verticalAlign=middle;whiteSpace=wrap;rounded=0;dashed=1;fontSize=12;fontFamily=Courier New;" vertex="1" parent="oDPe8HKDk9eNYHxUE_Uw-1">
          <mxGeometry x="160" y="300" width="200" height="20" as="geometry" />
        </mxCell>
        <mxCell id="oDPe8HKDk9eNYHxUE_Uw-66" value="GET" style="text;html=1;strokeColor=none;fillColor=none;align=left;verticalAlign=middle;whiteSpace=wrap;rounded=0;dashed=1;fontSize=12;fontFamily=Courier New;" vertex="1" parent="oDPe8HKDk9eNYHxUE_Uw-1">
          <mxGeometry x="120" y="300" width="40" height="20" as="geometry" />
        </mxCell>
        <mxCell id="oDPe8HKDk9eNYHxUE_Uw-98" value="Groups?$search=xyz" style="text;html=1;strokeColor=none;fillColor=none;align=left;verticalAlign=middle;whiteSpace=wrap;rounded=0;dashed=1;fontSize=12;fontFamily=Courier New;" vertex="1" parent="oDPe8HKDk9eNYHxUE_Uw-1">
          <mxGeometry x="160" y="380" width="200" height="20" as="geometry" />
        </mxCell>
        <mxCell id="oDPe8HKDk9eNYHxUE_Uw-99" value="GET" style="text;html=1;strokeColor=none;fillColor=none;align=left;verticalAlign=middle;whiteSpace=wrap;rounded=0;dashed=1;fontSize=12;fontFamily=Courier New;" vertex="1" parent="oDPe8HKDk9eNYHxUE_Uw-1">
          <mxGeometry x="120" y="380" width="40" height="20" as="geometry" />
        </mxCell>
        <mxCell id="oDPe8HKDk9eNYHxUE_Uw-100" value="List Groups that meet custom search criteria&amp;nbsp;" style="text;html=1;strokeColor=none;fillColor=none;align=left;verticalAlign=middle;whiteSpace=wrap;rounded=0;dashed=1;fontFamily=Helvetica;fontSize=12;" vertex="1" parent="oDPe8HKDk9eNYHxUE_Uw-1">
          <mxGeometry x="400" y="380" width="320" height="20" as="geometry" />
        </mxCell>
        <mxCell id="oDPe8HKDk9eNYHxUE_Uw-113" value="Description" style="text;html=1;strokeColor=none;fillColor=#f5f5f5;align=left;verticalAlign=middle;whiteSpace=wrap;rounded=0;fontSize=12;fontFamily=Helvetica;fontColor=#333333;fontStyle=0" vertex="1" parent="oDPe8HKDk9eNYHxUE_Uw-1">
          <mxGeometry x="400" y="200" width="320" height="20" as="geometry" />
        </mxCell>
        <mxCell id="oDPe8HKDk9eNYHxUE_Uw-114" value="URL" style="text;html=1;strokeColor=none;fillColor=#f5f5f5;align=left;verticalAlign=middle;whiteSpace=wrap;rounded=0;fontSize=12;fontFamily=Helvetica;fontColor=#333333;fontStyle=0" vertex="1" parent="oDPe8HKDk9eNYHxUE_Uw-1">
          <mxGeometry x="160" y="200" width="230" height="20" as="geometry" />
        </mxCell>
        <mxCell id="oDPe8HKDk9eNYHxUE_Uw-115" value="&lt;font style=&quot;font-size: 10px;&quot;&gt;VERB&lt;/font&gt;" style="text;html=1;strokeColor=none;fillColor=#f5f5f5;align=left;verticalAlign=middle;whiteSpace=wrap;rounded=0;fontSize=10;fontFamily=Helvetica;fontColor=#333333;fontStyle=0" vertex="1" parent="oDPe8HKDk9eNYHxUE_Uw-1">
          <mxGeometry x="120" y="200" width="30" height="20" as="geometry" />
        </mxCell>
        <mxCell id="oDPe8HKDk9eNYHxUE_Uw-116" value="&lt;font style=&quot;font-size: 9px&quot;&gt;&lt;span style=&quot;font-size: 10px&quot;&gt;SummaryItems&lt;/span&gt;?$search=Organisation,abc:xyz&lt;/font&gt;" style="text;html=1;strokeColor=none;fillColor=none;align=left;verticalAlign=middle;whiteSpace=wrap;rounded=0;dashed=1;fontSize=9;fontFamily=Courier New;" vertex="1" parent="oDPe8HKDk9eNYHxUE_Uw-1">
          <mxGeometry x="160" y="240" width="250" height="20" as="geometry" />
        </mxCell>
        <mxCell id="oDPe8HKDk9eNYHxUE_Uw-117" value="GET" style="text;html=1;strokeColor=none;fillColor=none;align=left;verticalAlign=middle;whiteSpace=wrap;rounded=0;dashed=1;fontSize=12;fontFamily=Courier New;" vertex="1" parent="oDPe8HKDk9eNYHxUE_Uw-1">
          <mxGeometry x="120" y="240" width="40" height="20" as="geometry" />
        </mxCell>
        <mxCell id="oDPe8HKDk9eNYHxUE_Uw-118" value="&lt;font style=&quot;font-size: 10px&quot;&gt;SummaryItems?$search=Organisation:xyz&lt;/font&gt;" style="text;html=1;strokeColor=none;fillColor=none;align=left;verticalAlign=middle;whiteSpace=wrap;rounded=0;dashed=1;fontSize=10;fontFamily=Courier New;" vertex="1" parent="oDPe8HKDk9eNYHxUE_Uw-1">
          <mxGeometry x="160" y="220" width="240" height="20" as="geometry" />
        </mxCell>
        <mxCell id="oDPe8HKDk9eNYHxUE_Uw-119" value="GET" style="text;html=1;strokeColor=none;fillColor=none;align=left;verticalAlign=middle;whiteSpace=wrap;rounded=0;dashed=1;fontSize=12;fontFamily=Courier New;" vertex="1" parent="oDPe8HKDk9eNYHxUE_Uw-1">
          <mxGeometry x="120" y="220" width="40" height="20" as="geometry" />
        </mxCell>
        <mxCell id="oDPe8HKDk9eNYHxUE_Uw-120" value="List SummaryItems of type Group custom matching xyz" style="text;html=1;strokeColor=none;fillColor=none;align=left;verticalAlign=middle;whiteSpace=wrap;rounded=0;dashed=1;fontFamily=Helvetica;fontSize=12;" vertex="1" parent="oDPe8HKDk9eNYHxUE_Uw-1">
          <mxGeometry x="400" y="220" width="320" height="20" as="geometry" />
        </mxCell>
        <mxCell id="oDPe8HKDk9eNYHxUE_Uw-121" value="&lt;font style=&quot;font-size: 11px&quot;&gt;List SummaryItems of type Group &amp;amp; abc custom matching xyz&lt;/font&gt;" style="text;html=1;strokeColor=none;fillColor=none;align=left;verticalAlign=middle;whiteSpace=wrap;rounded=0;dashed=1;fontFamily=Helvetica;fontSize=12;" vertex="1" parent="oDPe8HKDk9eNYHxUE_Uw-1">
          <mxGeometry x="400" y="240" width="320" height="20" as="geometry" />
        </mxCell>
        <mxCell id="oDPe8HKDk9eNYHxUE_Uw-131" value="Context/Legend" parent="oDPe8HKDk9eNYHxUE_Uw-0" />
        <mxCell id="oDPe8HKDk9eNYHxUE_Uw-132" value="Title/Diagram" parent="oDPe8HKDk9eNYHxUE_Uw-0" />
        <mxCell id="oDPe8HKDk9eNYHxUE_Uw-133" value="&lt;font style=&quot;font-size: 12px ; font-weight: normal&quot;&gt;&lt;i&gt;Diagram: Base System Logical Module -&amp;nbsp;&lt;/i&gt;&lt;i&gt;Interoperability&amp;nbsp;&lt;/i&gt;&lt;i&gt;- APIs - Groups&lt;/i&gt;&lt;/font&gt;" style="text;strokeColor=none;fillColor=none;html=1;fontSize=12;fontStyle=1;verticalAlign=middle;align=left;shadow=0;glass=0;comic=0;opacity=30;fontColor=#808080;" vertex="1" parent="oDPe8HKDk9eNYHxUE_Uw-132">
          <mxGeometry x="120" y="540" width="560" height="20" as="geometry" />
        </mxCell>
        <mxCell id="oDPe8HKDk9eNYHxUE_Uw-134" value="Title/Page" visible="0" parent="oDPe8HKDk9eNYHxUE_Uw-0" />
        <mxCell id="oDPe8HKDk9eNYHxUE_Uw-136" value="" style="group;fontSize=12;" vertex="1" connectable="0" parent="oDPe8HKDk9eNYHxUE_Uw-134">
          <mxGeometry x="120" y="120" width="600" height="45" as="geometry" />
        </mxCell>
        <mxCell id="oDPe8HKDk9eNYHxUE_Uw-137" value="&lt;font style=&quot;font-size: 12px&quot;&gt;Base Logical Module - Interoperability&amp;nbsp;- APIs - Groups&lt;/font&gt;" style="text;strokeColor=none;fillColor=none;html=1;fontSize=12;fontStyle=1;verticalAlign=middle;align=left;shadow=0;glass=0;comic=0;opacity=30;fontColor=#808080;" vertex="1" parent="oDPe8HKDk9eNYHxUE_Uw-136">
          <mxGeometry y="20" width="600" height="20" as="geometry" />
        </mxCell>
        <mxCell id="oDPe8HKDk9eNYHxUE_Uw-138" value="" style="line;strokeWidth=2;html=1;shadow=0;glass=0;comic=0;fillColor=none;fontSize=10;fontColor=#CCCCCC;labelBackgroundColor=none;strokeColor=#CCCCCC;" vertex="1" parent="oDPe8HKDk9eNYHxUE_Uw-136">
          <mxGeometry y="35" width="600" height="10" as="geometry" />
        </mxCell>
        <mxCell id="oDPe8HKDk9eNYHxUE_Uw-135" value="About" parent="oDPe8HKDk9eNYHxUE_Uw-0" />
      </root>
    </mxGraphModel>
  </diagram>
</mxfile>
